<svg width="500" height="500" xmlns="http://www.w3.org/2000/svg">
 <g>
  <circle fill="#8cd0de" stroke-width="0" r="65" cy="250" cx="250"/>
  <path fill="#8cd0de" d="m247.4,162.5l0,3.8c46.8,0 84.8,37.4 85.8,83.9l3.8,0c-1,-48.5 -40.7,-87.7 -89.6,-87.7zm-85.8,89.6c0,-0.6 0,-1.2 0,-1.8l-3.8,0c0,0.6 0,1.2 0,1.8c0,49.5 40.1,89.6 89.6,89.6l0,-3.8c-47.4,0 -85.8,-38.4 -85.8,-85.8z"/>
  <path fill="#8cd0de" d="m179.7,327.9l-3.2,3.4c28.7,26.8 70.3,36.6 108.5,24l-1.4,-4.4c-36.7,12 -76.5,2.6 -103.9,-23zm145.3,-156.6l-3.2,3.4c9,8.3 16.6,18.2 22.5,29.8c10.8,21.3 13.5,44.6 9.4,66.4l4.6,0.9c4.3,-22.8 1.5,-47.1 -9.8,-69.4c-6.1,-12 -14.1,-22.5 -23.5,-31.1zm-180.7,57.7l4.6,0.9c6.4,-29.9 25.7,-56.8 55.1,-71.6c4.7,-2.4 9.4,-4.3 14.3,-5.9l-1.5,-4.5c-5,1.7 -10,3.7 -14.9,6.2c-30.8,15.5 -51,43.6 -57.6,74.9z"/>
  <path d="m200,171" opacity="NaN" stroke="#000" fill="#fff"/>
 </g>
</svg>
