<?xml version="1.0" encoding="utf-8"?>
<!-- Generator: Adobe Illustrator 25.2.1, SVG Export Plug-In . SVG Version: 6.00 Build 0)  -->
<svg version="1.1" id="Ebene_1" xmlns="http://www.w3.org/2000/svg" xmlns:xlink="http://www.w3.org/1999/xlink" x="0px" y="0px"
	 viewBox="0 0 500 500" style="enable-background:new 0 0 500 500;" xml:space="preserve">
<style type="text/css">
	.st0{fill:#FFFFFF;}
	.st1{fill:#8BCDDA;}
	.st2{fill:none;}
</style>
<g>
	<rect x="231.1" y="224.8" class="st0" width="76.7" height="11"/>
	<rect x="231.1" y="247.7" class="st0" width="76.7" height="11"/>
	<rect x="231.1" y="270.5" class="st0" width="76.7" height="11"/>
</g>
<path class="st1" d="M269.4,163.5v3.8c46.8,0,84.8,37.4,85.8,83.9h3.8C358,202.7,318.3,163.5,269.4,163.5z M183.6,253.1
	c0-0.6,0-1.2,0-1.8h-3.8c0,0.6,0,1.2,0,1.8c0,49.5,40.1,89.6,89.6,89.6v-3.8C222,338.9,183.6,300.5,183.6,253.1z"/>
<line class="st2" x1="223.6" y1="47.7" x2="223.6" y2="116.9"/>
<path class="st1" d="M198.7,330.9l-3.2,3.4c28.7,26.8,70.3,36.6,108.5,24l-1.4-4.4C265.9,365.9,226.1,356.5,198.7,330.9z M344,174.3
	l-3.2,3.4c9,8.3,16.6,18.2,22.5,29.8c10.8,21.3,13.5,44.6,9.4,66.4l4.6,0.9c4.3-22.8,1.5-47.1-9.8-69.4
	C361.4,193.4,353.4,182.9,344,174.3z M163.3,232l4.6,0.9c6.4-29.9,25.7-56.8,55.1-71.6c4.7-2.4,9.4-4.3,14.3-5.9l-1.5-4.5
	c-5,1.7-10,3.7-14.9,6.2C190.1,172.6,169.9,200.7,163.3,232z"/>
</svg>
