<?xml version="1.0" encoding="utf-8"?>
<!-- Generator: Adobe Illustrator 25.2.1, SVG Export Plug-In . SVG Version: 6.00 Build 0)  -->
<svg version="1.1" id="Ebene_1" xmlns="http://www.w3.org/2000/svg" xmlns:xlink="http://www.w3.org/1999/xlink" x="0px" y="0px"
	 viewBox="0 0 500 500" style="enable-background:new 0 0 500 500;" xml:space="preserve">
<style type="text/css">
	.st0{fill:none;stroke:#d2d5d8;stroke-miterlimit:10;}
	.st1{fill:none;stroke:#d2d5d8;stroke-width:0.5;stroke-miterlimit:10;}
	.st2{fill:#d2d5d8;}
	.st3{fill:none;stroke:#d2d5d8;stroke-width:0.25;stroke-miterlimit:10;}
	.st4{fill:none;stroke:#d2d5d8;stroke-width:0.1;stroke-miterlimit:10;}
</style>
<g>
	<polygon class="st0" points="218.1,156.9 282.1,220.9 350.9,274.8 255.6,289.7 231.3,238.9 	"/>
	<polyline class="st0" points="173.5,246.7 231.3,238.9 350.9,274.8 269.6,300.6 255.6,289.7 	"/>
	<path class="st1" d="M320.4,351.4c-0.8-3.1-40.6-171.9-40.6-171.9l48.4,1.6"/>
	<polyline class="st1" points="173.5,247 256.3,289.7 274.9,351.4 392.8,313 321.2,355.3 269.6,300.6 279.8,179.5 255.6,289.7
		282.1,220.9 328.2,181.1 288.4,128 242.3,181.1 	"/>
	<circle class="st2" cx="242.3" cy="181" r="3.1"/>
	<circle class="st2" cx="279.8" cy="181" r="3.1"/>
	<circle class="st2" cx="328.2" cy="181" r="3.1"/>
	<circle class="st2" cx="282.9" cy="220.2" r="3.1"/>
	<circle class="st2" cx="256.3" cy="289.7" r="3.1"/>
	<circle class="st2" cx="230.8" cy="238.9" r="3.1"/>
	<circle class="st2" cx="172.8" cy="246.9" r="3.1"/>
	<circle class="st2" cx="351.8" cy="274.6" r="3.1"/>
	<circle class="st2" cx="269.8" cy="300.6" r="1.8"/>
	<circle class="st2" cx="218.1" cy="156.2" r="1.8"/>
	<circle class="st2" cx="289.2" cy="128" r="3.1"/>
	<polyline class="st1" points="171.7,247 218.1,156.2 222.1,137.4 289.2,128 247.4,124.8 292.3,156 328.2,181 222.1,137.4
		292.3,156 	"/>
	<polyline class="st3" points="173.5,248.8 125.6,177.9 218.1,156.2 164.5,117.3 125.6,177.9 	"/>
	<polygon class="st3" points="90.2,162.3 66.2,214.2 73.2,231.3 84.1,235.8 	"/>
	<polyline class="st3" points="73.2,231.3 90.2,162.3 125.6,177.9 	"/>
	<polyline class="st3" points="84.1,235.8 203.3,312.9 203.3,289.7 157.9,319.9 205.1,390.2 259.4,375.3 269.8,302.4 	"/>
	<line class="st3" x1="205.1" y1="390.2" x2="203.3" y2="312.9"/>
	<polyline class="st3" points="269.8,300.6 157.9,319.9 173.5,247 203.3,312.9 230.8,238.9 	"/>
	<polyline class="st1" points="321.2,355.3 339.7,318.4 354.9,340.2 371.4,351.5 470,311.3 392.8,313 371,315.7 339.7,318.4 	"/>
	<polyline class="st3" points="392.8,313 409.4,409.2 371.4,351.5 422.4,342.5 461.5,407.2 371.4,351.5 392.8,443.9 354.9,340.2
		337.4,373.8 321.2,413.6 275.8,386.4 259.4,375.3 203.3,289.7 	"/>
	<polyline class="st3" points="282.9,220.2 321.2,146.8 351.8,227.4 407.8,235.8 339.7,318.4 402.9,193.6 414.5,217 407.8,235.8
		321.2,146.8 388.6,228.3 351.8,227.4 	"/>
	<polygon class="st4" points="286,72.8 289.2,128 222.1,137.4 	"/>
	<polyline class="st4" points="247.4,124.8 286,72.8 348.7,79 361.3,65.6 354.3,164.5 348.7,79 346,92.4 289.2,128 289.6,154.2
		346,92.4 328.2,181 321.2,146.8 429.1,139.5 405.2,109.1 437.8,203.5 428.7,117.3 354.3,164.5 426.8,82.8 489,61.2 	"/>
	<polygon class="st4" points="485.7,220.2 407.8,235.8 469.5,265.5 414.5,217 437.8,203.5 455.7,231.7 402.9,193.6 	"/>
	<path class="st4" d="M414.5,217l71.2,3.1L414.5,217z"/>
	<polyline class="st4" points="470,311.3 414.5,217 469.5,265.5 371,315.7 407.8,235.8 469.5,265.5 	"/>
	<circle class="st2" cx="387" cy="228" r="3.7"/>
	<circle class="st2" cx="352.4" cy="227" r="3.7"/>
	<circle class="st2" cx="485.7" cy="219.8" r="3.1"/>
	<circle class="st2" cx="456" cy="231.7" r="3.1"/>
	<circle class="st2" cx="437.5" cy="203.5" r="3.1"/>
	<circle class="st2" cx="402.9" cy="193.6" r="3.1"/>
	<circle class="st2" cx="414.5" cy="217" r="3.1"/>
	<circle class="st2" cx="470" cy="265.7" r="3.1"/>
	<circle class="st2" cx="408" cy="235.7" r="3.1"/>
	<circle class="st2" cx="392.8" cy="312.6" r="3.1"/>
	<circle class="st2" cx="469.4" cy="310.6" r="3.1"/>
	<circle class="st2" cx="372.5" cy="314.4" r="3.1"/>
	<circle class="st2" cx="340.1" cy="318.4" r="3.1"/>
	<circle class="st2" cx="372.5" cy="351.4" r="3.1"/>
	<circle class="st2" cx="354.9" cy="341.1" r="3.1"/>
	<circle class="st2" cx="320.5" cy="353.3" r="3.1"/>
	<circle class="st2" cx="275.6" cy="351.4" r="3.1"/>
	<circle class="st2" cx="259.2" cy="375.4" r="3.1"/>
	<circle class="st2" cx="321.2" cy="413.3" r="3.1"/>
	<circle class="st2" cx="393.1" cy="443.9" r="3.1"/>
	<circle class="st2" cx="409.4" cy="410.2" r="3.1"/>
	<circle class="st2" cx="461.5" cy="407.1" r="3.1"/>
	<circle class="st2" cx="422.3" cy="342.3" r="3.1"/>
	<circle class="st2" cx="205.1" cy="390.2" r="3.1"/>
	<circle class="st2" cx="202.8" cy="312.3" r="3.1"/>
	<circle class="st2" cx="157.2" cy="319.9" r="3.1"/>
	<circle class="st2" cx="202.8" cy="289.7" r="3.1"/>
	<circle class="st2" cx="84.1" cy="235.4" r="2"/>
	<circle class="st2" cx="73.2" cy="231.3" r="2"/>
	<circle class="st2" cx="66.2" cy="214.4" r="2"/>
	<circle class="st2" cx="90.2" cy="162.1" r="2"/>
	<circle class="st2" cx="126" cy="177.9" r="2.8"/>
	<circle class="st2" cx="164.3" cy="117.3" r="2"/>
	<circle class="st2" cx="222.3" cy="137.4" r="2"/>
	<circle class="st2" cx="247.4" cy="124.8" r="2"/>
	<circle class="st2" cx="286.2" cy="73.2" r="2"/>
	<circle class="st2" cx="348.8" cy="79" r="2"/>
	<circle class="st2" cx="361.4" cy="65.4" r="2"/>
	<circle class="st2" cx="345.7" cy="92.6" r="2"/>
	<circle class="st2" cx="354.3" cy="163.6" r="2"/>
	<circle class="st2" cx="405.1" cy="108.1" r="2"/>
	<circle class="st2" cx="428.8" cy="117" r="2"/>
	<circle class="st2" cx="428.4" cy="138.9" r="2"/>
</g>
</svg>
